# xmcd CD database file
#
# Track frame offsets:
#	150
#	18240
#	29077
#	44629
#	53876
#	78278
#	106510
#	123198
#	130343
#	141796
#	153810
#	162492
#	180808
#	187444
#	193388
#	205068
#	208178
#	220946
#
# Disc length: 3142 seconds
#
# Revision: 0
# Processed by: cddbd v1.5.2PL0 Copyright (c) Steve Scherf et al.
# Submitted via: CDex 1.51
#
DISCID=050c4412
DTITLE=David Virelles - Gnosis
DYEAR=2017
DGENRE=Jazz
TTITLE0=Del Tabaco Y El Azúcar
TTITLE1=Fitití Ñongo
TTITLE2=Lengua I
TTITLE3=Erume Kondó
TTITLE4=Benkomo
TTITLE5=Tierra
TTITLE6=De Ida Y Vuelta I
TTITLE7=Lengua II
TTITLE8=De Ida Y Vuelta II
TTITLE9=Nuná
TTITLE10=Epílogo
TTITLE11=Dos
TTITLE12=Caracola
TTITLE13=Visiones Sonoras
TTITLE14=De Portal
TTITLE15=De Tres
TTITLE16=De Cuando Era Chiquita
TTITLE17=De Coral
EXTD=YEAR: 2017
EXTT0=
EXTT1=
EXTT2=
EXTT3=
EXTT4=
EXTT5=
EXTT6=
EXTT7=
EXTT8=
EXTT9=
EXTT10=
EXTT11=
EXTT12=
EXTT13=
EXTT14=
EXTT15=
EXTT16=
EXTT17=
PLAYORDER=
